PathFileType	4	(X/Y/Z)	Kaydara																																																																																																																									
DataRate	CameraRate	NumFrames	NumMarkers	Units	OrigDataRate	OrigDataStartFrame	OrigNumFrames																																																																																																																					
30	30	8	41	mm	30	23	179																																																																																																																					
Frame#	Time	EMLA_LFHD			EMLA_RFHD			EMLA_LBHD			EMLA_RBHD			EMLA_LFTShould			EMLA_RFTShould			EMLA_LRRShould			EMLA_RRRShould			EMLA_T10			EMLA_STRN			EMLA_TRUN			EMLA_LSHO			EMLA_LUPA			EMLA_LELB			EMLA_LFRM			EMLA_LWRA			EMLA_LWRB			EMLA_LFIN			EMLA_RSHO			EMLA_RUPA			EMLA_RELB			EMLA_RFRM			EMLA_RWRA			EMLA_RWRB			EMLA_RFIN			EMLA_LFWT			EMLA_RFWT			EMLA_LBWT			EMLA_RBWT			EMLA_LTHI			EMLA_LKNE			EMLA_LSHN			EMLA_LANK			EMLA_LHEE			EMLA_LTOE			EMLA_RTHI			EMLA_RKNE			EMLA_RSHN			EMLA_RANK			EMLA_RHEE			EMLA_RTOE		
		X1	Y1	Z1	X2	Y2	Z2	X3	Y3	Z3	X4	Y4	Z4	X5	Y5	Z5	X6	Y6	Z6	X7	Y7	Z7	X8	Y8	Z8	X9	Y9	Z9	X10	Y10	Z10	X11	Y11	Z11	X12	Y12	Z12	X13	Y13	Z13	X14	Y14	Z14	X15	Y15	Z15	X16	Y16	Z16	X17	Y17	Z17	X18	Y18	Z18	X19	Y19	Z19	X20	Y20	Z20	X21	Y21	Z21	X22	Y22	Z22	X23	Y23	Z23	X24	Y24	Z24	X25	Y25	Z25	X26	Y26	Z26	X27	Y27	Z27	X28	Y28	Z28	X29	Y29	Z29	X30	Y30	Z30	X31	Y31	Z31	X32	Y32	Z32	X33	Y33	Z33	X34	Y34	Z34	X35	Y35	Z35	X36	Y36	Z36	X37	Y37	Z37	X38	Y38	Z38	X39	Y39	Z39	X40	Y40	Z40	X41	Y41	Z41
																																																																																																																												
23	0.743	238.05428	1643.67722	-1910.53253	68.3795	1641.37207	-1917.42462	257.96196	1625.46326	-2059.9707	63.37847	1625.72861	-2069.66888	241.39156	1411.16302	-1955.92804	92.87995	1400.37064	-1955.63187	236.24584	1445.86609	-2106.76361	80.46658	1435.06042	-2106.20407	173.52808	1266.4254	-2137.83081	166.54823	1343.89023	-1912.19864	162.42714	1242.82486	-1884.26208	366.37234	1429.66568	-2007.9834	420.49099	1245.75294	-2007.22748	434.6759	1101.00304	-1998.30475	432.55684	965.1133	-1981.86981	347.95212	830.68001	-1890.06882	405.96943	804.35486	-1946.21414	397.8281	777.34108	-1881.97754	-28.65936	1422.63641	-2023.94974	-79.35378	1227.45148	-2009.93332	-91.0166	1080.12825	-2017.49557	-88.83535	980.03792	-2014.32846	-18.24353	830.92346	-1897.78442	-65.37455	804.50966	-1963.5228	-74.83283	779.33449	-1904.19235	270.38031	992.21802	-1894.73648	34.58791	981.33652	-1916.7923	254.60146	1014.83116	-2094.75601	79.98567	1014.79172	-2095.24353	304.58059	726.39435	-2082.52197	305.92684	523.20305	-2044.50119	278.89782	343.10261	-2036.65909	285.34275	166.37043	-2110.16022	223.11998	84.7018	-2171.71783	248.13976	73.74047	-1971.40533	52.61062	717.01294	-2109.42429	25.59	514.36047	-2051.58264	76.41757	294.51229	-2044.64661	45.00138	131.75866	-2124.28131	104.14837	77.65567	-2174.63959	67.99335	71.02402	-1973.90579
24	0.777	237.88904	1643.4996	-1910.65811	68.03914	1641.12198	-1917.41898	257.54559	1625.68787	-2060.11917	62.94524	1625.95947	-2069.7699	241.07294	1411.11618	-1956.22421	92.60325	1400.39902	-1955.76874	235.84261	1445.91675	-2107.15881	80.00571	1435.03525	-2106.38855	173.08468	1266.42029	-2137.96478	165.98253	1344.12628	-1912.4147	162.20482	1242.82822	-1884.42307	366.04065	1429.65775	-2008.31833	420.10262	1245.71175	-2007.56973	434.1008	1100.91888	-1998.65921	431.83586	965.00404	-1982.22931	347.11468	830.69733	-1890.37506	405.04196	804.33708	-1946.53046	396.97948	777.37442	-1882.2847	-29.0053	1422.59079	-2023.98544	-79.77836	1227.43683	-2009.9884	-91.3763	1080.10986	-2017.50458	-89.18361	979.99268	-2014.3042	-18.48899	831.00906	-1897.69211	-65.73454	804.52538	-1963.39005	-75.20077	779.39087	-1904.06021	270.07534	992.22336	-1894.84512	34.27835	981.28044	-1916.78696	254.23029	1014.81659	-2094.80316	79.66601	1014.80415	-2095.21729	304.38648	726.40343	-2082.53296	305.7399	523.2169	-2044.47632	278.7936	343.12496	-2036.64154	285.29823	166.41056	-2110.14389	223.06673	84.68828	-2171.72592	248.12168	73.72838	-1971.38092	52.38806	716.99669	-2109.45007	25.4873	514.34299	-2051.64902	76.37147	294.48158	-2044.64722	44.97052	131.74304	-2124.28253	104.09615	77.69208	-2174.67804	68.01068	71.02238	-1973.91388
25	0.81	237.49241	1643.3046	-1910.68542	67.67448	1640.98877	-1917.41425	257.10169	1625.8432	-2060.26489	62.51444	1626.12015	-2069.71603	240.69168	1411.10626	-1956.42609	92.10307	1400.48309	-1955.91232	235.3714	1445.88425	-2107.35229	79.61948	1435.03189	-2106.5152	172.67323	1266.35986	-2138.09402	165.72729	1344.14124	-1912.63168	161.92852	1242.88223	-1884.60114	365.6427	1429.62555	-2008.62732	419.61117	1245.67703	-2008.01727	433.59707	1100.85411	-1999.13055	431.23024	964.96384	-1982.68051	346.14159	830.66795	-1890.6752	404.17164	804.30428	-1946.84921	396.17378	777.37457	-1882.65305	-29.42727	1422.57477	-2024.09607	-80.04492	1227.36191	-2010.00183	-91.69244	1080.08362	-2017.47452	-89.55072	979.99146	-2014.25003	-18.86401	830.96184	-1897.69165	-66.15792	804.50745	-1963.33817	-75.72916	779.38095	-1904.04022	269.79996	992.25479	-1895.00259	34.02787	981.32477	-1916.62277	253.83736	1014.80057	-2094.91531	79.26328	1014.86122	-2095.30518	304.13324	726.39969	-2082.59567	305.57764	523.24665	-2044.51248	278.66434	343.1329	-2036.6452	285.22434	166.39826	-2110.15579	223.01504	84.69896	-2171.68945	248.15292	73.71713	-1971.39557	52.19119	716.931	-2109.46487	25.31929	514.30744	-2051.75934	76.24457	294.50644	-2044.72168	44.92465	131.70436	-2124.27292	104.10334	77.61899	-2174.64645	67.97936	71.02849	-1973.91144
26	0.843	237.34377	1643.20633	-1910.84198	67.38625	1640.93903	-1917.34589	256.61522	1625.8522	-2060.39749	62.08733	1626.20834	-2069.54971	240.30874	1411.02493	-1956.66946	91.90796	1400.52109	-1955.86197	234.91215	1445.89478	-2107.45773	79.13225	1435.04959	-2106.56403	172.22618	1266.3871	-2138.28003	165.3878	1344.10385	-1912.83234	161.70204	1242.92122	-1884.66782	365.31677	1429.62326	-2008.90778	419.22974	1245.61195	-2008.47015	433.11985	1100.74638	-1999.60052	430.61359	964.89929	-1983.13004	345.33688	830.76698	-1891.06537	403.33817	804.26247	-1947.25449	395.36716	777.36267	-1883.05176	-29.83155	1422.5589	-2024.077	-80.30402	1227.30782	-2009.88464	-91.98606	1080.05013	-2017.34436	-89.92863	980.01152	-2014.22012	-19.25099	830.86273	-1897.78763	-66.6474	804.46671	-1963.38364	-76.16792	779.33014	-1904.10858	269.47977	992.2744	-1895.05753	33.69153	981.28838	-1916.73569	253.50481	1014.82903	-2095.09979	78.90474	1014.88617	-2095.39856	303.90156	726.43105	-2082.74399	305.42793	523.29971	-2044.56924	278.61523	343.17757	-2036.65863	285.18543	166.45517	-2110.19241	222.99467	84.71591	-2171.70181	248.15626	73.75701	-1971.39008	52.14013	717.02118	-2109.82956	25.18458	514.35669	-2052.00943	76.14472	294.53434	-2044.79645	44.95301	131.68702	-2124.31854	104.08503	77.65726	-2174.69116	67.97441	71.0335	-1973.91449
27	0.877	237.11908	1643.04031	-1910.97839	67.20753	1640.82687	-1917.18903	256.22547	1625.90866	-2060.62515	61.61134	1626.32507	-2069.42307	240.00561	1411.05713	-1956.95587	91.73531	1400.54871	-1955.69397	234.44187	1445.92896	-2107.66495	78.6026	1435.08163	-2106.64536	171.66103	1266.42151	-2138.43994	165.19398	1344.15222	-1912.99973	161.38973	1242.83989	-1884.88602	364.91768	1429.62662	-2009.2363	418.81828	1245.62149	-2008.78967	432.64458	1100.72166	-2000.01495	430.1199	964.95193	-1983.67157	344.77772	830.82626	-1891.45981	402.72118	804.21684	-1947.6976	394.6685	777.31087	-1883.45627	-30.21163	1422.51877	-2023.90533	-80.73084	1227.32368	-2009.76196	-92.43533	1080.0396	-2017.15759	-90.36813	980.01396	-2014.1481	-19.58821	830.73853	-1897.93259	-67.05601	804.39827	-1963.49792	-76.5226	779.20891	-1904.23111	269.04259	992.19414	-1895.22736	33.46381	981.33667	-1916.76575	253.24373	1014.90074	-2095.34378	78.62542	1014.92935	-2095.51132	303.7332	726.41212	-2082.8894	305.30235	523.32523	-2044.63898	278.52821	343.16479	-2036.64795	285.12135	166.40499	-2110.13367	222.94966	84.6766	-2171.67969	248.13482	73.73828	-1971.38489	52.11284	717.06497	-2110.29327	25.04844	514.30225	-2052.29279	76.04663	294.54227	-2044.97269	44.90414	131.62683	-2124.32892	104.01711	77.67087	-2174.74747	67.95325	71.03707	-1973.92303
28	0.91	237.00342	1642.97897	-1911.16516	67.25601	1640.71625	-1916.99738	255.80906	1625.90622	-2060.80322	61.20947	1626.40625	-2069.31854	239.60081	1411.00494	-1957.14828	91.12825	1400.52933	-1955.91476	233.92162	1446.01822	-2107.98065	78.08846	1435.11139	-2106.58737	171.14029	1266.47789	-2138.60992	165.11381	1344.14871	-1913.06381	161.16701	1242.83607	-1884.96964	364.52759	1429.64264	-2009.62021	418.32703	1245.62782	-2009.19922	432.11979	1100.69382	-2000.39825	429.58961	964.84932	-1984.05258	344.4751	830.89333	-1891.92627	402.25742	804.20486	-1948.21075	394.1811	777.29279	-1883.99384	-30.6174	1422.53082	-2023.71811	-81.1745	1227.31995	-2009.55002	-92.909	1080.08896	-2016.97784	-90.84078	980.03891	-2014.0242	-19.7265	830.68192	-1898.09494	-67.45496	804.39316	-1963.63693	-76.74441	779.15207	-1904.36951	268.91449	992.30751	-1895.58578	33.27144	981.35483	-1916.77444	252.97869	1014.99565	-2095.52292	78.37921	1015.0238	-2095.60257	303.55814	726.48949	-2083.07953	305.20773	523.38135	-2044.75113	278.49277	343.19881	-2036.7305	285.12951	166.44667	-2110.20416	222.95155	84.6827	-2171.67191	248.15857	73.76584	-1971.39694	51.87459	717.09473	-2110.55099	24.93723	514.28413	-2052.50336	75.94849	294.60754	-2045.12848	44.84874	131.62372	-2124.34296	103.9739	77.619	-2174.7226	67.93123	71.03839	-1973.9267
29	0.943	236.805	1642.86392	-1911.34003	66.90814	1640.75989	-1917.01019	255.36348	1625.90637	-2061.04813	60.81225	1626.46835	-2069.18472	239.35186	1411.15448	-1957.38022	90.74251	1400.61859	-1955.97504	233.45049	1445.97717	-2108.0899	77.55788	1435.16861	-2106.57791	170.60854	1266.55312	-2138.8121	164.95098	1344.26392	-1913.27682	160.93998	1242.84264	-1885.20706	364.14471	1429.66568	-2009.95148	417.88692	1245.66719	-2009.6843	431.726	1100.77721	-2000.95825	429.20231	964.89693	-1984.60022	344.2181	830.88196	-1892.35184	401.89514	804.23302	-1948.7648	393.90945	777.30629	-1884.52652	-31.00104	1422.58316	-2023.62366	-81.58483	1227.47498	-2009.5488	-93.29911	1080.14816	-2016.91742	-91.24535	980.09155	-2014.00833	-19.93378	830.63034	-1898.3609	-67.75809	804.36203	-1963.71964	-76.94001	779.10233	-1904.47205	268.69591	992.31346	-1895.78156	33.11229	981.32721	-1916.90369	252.66577	1015.07385	-2095.77209	78.06775	1015.04433	-2095.71167	303.31932	726.53305	-2083.37341	305.12238	523.42953	-2044.93637	278.46626	343.24013	-2036.83929	285.11007	166.47799	-2110.2417	222.94706	84.68678	-2171.67877	248.16103	73.75029	-1971.38504	51.65269	717.12837	-2110.78217	24.81112	514.30244	-2052.72232	75.8738	294.64849	-2045.23972	44.80729	131.60645	-2124.34799	103.94264	77.63522	-2174.73907	67.93263	71.01531	-1973.92395
30	0.977	236.6725	1642.81158	-1911.52954	66.89572	1640.67093	-1916.77261	254.92077	1625.93552	-2061.25916	60.36214	1626.55289	-2069.09592	239.03111	1411.11115	-1957.58209	90.44343	1400.51071	-1956.03439	233.03432	1446.07727	-2108.29605	77.12499	1435.23071	-2106.5976	170.15965	1266.63177	-2139.0387	164.70282	1344.29306	-1913.46313	160.78375	1242.83401	-1885.38574	363.79932	1429.72458	-2010.28397	417.58495	1245.68748	-2010.18005	431.45325	1100.85213	-2001.57257	428.904	964.93248	-1985.16296	344.1283	830.87166	-1892.86804	401.68549	804.29413	-1949.36981	393.76568	777.30133	-1885.09247	-31.34913	1422.5563	-2023.50311	-81.94163	1227.45552	-2009.45465	-93.61924	1080.11681	-2016.9043	-91.58944	980.07042	-2014.0799	-20.22092	830.49934	-1898.52554	-68.07763	804.36165	-1963.8681	-77.20487	779.09668	-1904.57123	268.6392	992.52609	-1896.38	33.10548	981.45027	-1916.88629	252.34066	1015.06706	-2096.17386	77.70508	1014.98016	-2095.91949	303.16664	726.56998	-2083.65479	305.00801	523.45512	-2045.03952	278.37969	343.23513	-2036.87729	285.0519	166.47541	-2110.26138	222.89633	84.64944	-2171.66458	248.16856	73.78537	-1971.39893	51.61496	717.17117	-2111.08658	24.67438	514.3034	-2052.81067	75.82282	294.64241	-2045.31647	44.77533	131.57071	-2124.36249	103.87329	77.60504	-2174.78104	67.93345	71.00489	-1973.92914
